REM DIRINDEX 1\2,1\3,1\4,1\5
REM DIRNAME "folder01","folder02","folder03","folder04","folder05"
TITLE ""
FILE "P1Q_t_0729-0738.mp3" MP3
  TRACK 01 AUDIO
    TITLE "0:"
    INDEX 01 00:00:00
  TRACK 02 AUDIO
    TITLE "2:cjc173_3127"
    INDEX 01 00:00:10
  TRACK 03 AUDIO
    TITLE "0:"
    INDEX 01 00:01:18
  TRACK 04 AUDIO
    TITLE "3:cjc173_3128"
    INDEX 01 00:01:65
  TRACK 05 AUDIO
    TITLE "0:"
    INDEX 01 00:03:07
  TRACK 06 AUDIO
    TITLE "4:cjc173_3129"
    INDEX 01 00:03:30
  TRACK 07 AUDIO
    TITLE "0:"
    INDEX 01 00:06:42
  TRACK 08 AUDIO
    TITLE "5:cjc173_3130"
    INDEX 01 00:06:62
  TRACK 09 AUDIO
    TITLE "0:"
    INDEX 01 00:11:34
  TRACK 10 AUDIO
    TITLE "3:cjc173_3131"
    INDEX 01 00:12:08
  TRACK 11 AUDIO
    TITLE "0:"
    INDEX 01 00:13:44
  TRACK 12 AUDIO
    TITLE "4:cjc173_3132"
    INDEX 01 00:13:66
  TRACK 13 AUDIO
    TITLE "0:"
    INDEX 01 00:17:24
  TRACK 14 AUDIO
    TITLE "5:cjc173_3133"
    INDEX 01 00:17:44
  TRACK 15 AUDIO
    TITLE "0:"
    INDEX 01 00:23:29
  TRACK 16 AUDIO
    TITLE "3:cjc173_3134"
    INDEX 01 00:24:03
  TRACK 17 AUDIO
    TITLE "0:"
    INDEX 01 00:25:22
  TRACK 18 AUDIO
    TITLE "4:cjc173_3135"
    INDEX 01 00:25:42
  TRACK 19 AUDIO
    TITLE "0:"
    INDEX 01 00:27:58
  TRACK 20 AUDIO
    TITLE "5:cjc173_3136"
    INDEX 01 00:28:03
  TRACK 21 AUDIO
    TITLE "0:"
    INDEX 01 00:32:20
  TRACK 22 AUDIO
    TITLE "3:cjc173_3137"
    INDEX 01 00:32:65
  TRACK 23 AUDIO
    TITLE "0:"
    INDEX 01 00:34:03
  TRACK 24 AUDIO
    TITLE "4:cjc173_3138"
    INDEX 01 00:34:27
  TRACK 25 AUDIO
    TITLE "0:"
    INDEX 01 00:37:45
  TRACK 26 AUDIO
    TITLE "5:cjc173_3139"
    INDEX 01 00:37:64
  TRACK 27 AUDIO
    TITLE "0:"
    INDEX 01 00:41:45
  TRACK 28 AUDIO
    TITLE "3:cjc173_3140"
    INDEX 01 00:42:24
  TRACK 29 AUDIO
    TITLE "0:"
    INDEX 01 00:43:32
  TRACK 30 AUDIO
    TITLE "4:cjc173_3141"
    INDEX 01 00:43:53
  TRACK 31 AUDIO
    TITLE "0:"
    INDEX 01 00:47:22
  TRACK 32 AUDIO
    TITLE "5:cjc173_3142"
    INDEX 01 00:47:41
  TRACK 33 AUDIO
    TITLE "0:"
    INDEX 01 00:51:39
  TRACK 34 AUDIO
    TITLE "3:cjc173_3143"
    INDEX 01 00:52:11
  TRACK 35 AUDIO
    TITLE "0:"
    INDEX 01 00:53:34
  TRACK 36 AUDIO
    TITLE "4:cjc173_3144"
    INDEX 01 00:53:57
  TRACK 37 AUDIO
    TITLE "0:"
    INDEX 01 00:56:40
  TRACK 38 AUDIO
    TITLE "5:cjc173_3145"
    INDEX 01 00:56:62
  TRACK 39 AUDIO
    TITLE "0:"
    INDEX 01 01:01:57
  TRACK 40 AUDIO
    TITLE "3:cjc173_3146"
    INDEX 01 01:02:29
  TRACK 41 AUDIO
    TITLE "0:"
    INDEX 01 01:03:34
  TRACK 42 AUDIO
    TITLE "4:cjc173_3147"
    INDEX 01 01:03:56
  TRACK 43 AUDIO
    TITLE "0:"
    INDEX 01 01:05:63
  TRACK 44 AUDIO
    TITLE "5:cjc173_3148"
    INDEX 01 01:06:07
  TRACK 45 AUDIO
    TITLE "0:"
    INDEX 01 01:09:41
  TRACK 46 AUDIO
    TITLE "3:cjc173_3149"
    INDEX 01 01:10:13
  TRACK 47 AUDIO
    TITLE "0:"
    INDEX 01 01:11:44
  TRACK 48 AUDIO
    TITLE "4:cjc173_3150"
    INDEX 01 01:11:65
  TRACK 49 AUDIO
    TITLE "0:"
    INDEX 01 01:15:55
  TRACK 50 AUDIO
    TITLE "5:cjc173_3151"
    INDEX 01 01:16:00
  TRACK 51 AUDIO
    TITLE "0:"
    INDEX 01 01:19:45
  TRACK 52 AUDIO
    TITLE "3:cjc173_3152"
    INDEX 01 01:20:17
  TRACK 53 AUDIO
    TITLE "0:"
    INDEX 01 01:21:42
  TRACK 54 AUDIO
    TITLE "4:cjc173_3153"
    INDEX 01 01:21:64
  TRACK 55 AUDIO
    TITLE "0:"
    INDEX 01 01:24:19
  TRACK 56 AUDIO
    TITLE "5:cjc173_3154"
    INDEX 01 01:24:38
  TRACK 57 AUDIO
    TITLE "0:"
    INDEX 01 01:29:14
  TRACK 58 AUDIO
    TITLE "3:cjc173_3155"
    INDEX 01 01:29:61
  TRACK 59 AUDIO
    TITLE "0:"
    INDEX 01 01:30:57
  TRACK 60 AUDIO
    TITLE "4:cjc173_3156"
    INDEX 01 01:31:07
  TRACK 61 AUDIO
    TITLE "0:"
    INDEX 01 01:33:39
  TRACK 62 AUDIO
    TITLE "5:cjc173_3157"
    INDEX 01 01:33:61
  TRACK 63 AUDIO
    TITLE "0:"
    INDEX 01 01:37:39
